<svg xmlns="http://www.w3.org/2000/svg" width="22" height="22" viewBox="0 0 22 22">
    <g fill="none" fill-rule="evenodd">
        <path fill="#000" fill-rule="nonzero" d="M0 21.932V0h17.87L22 3.012l-3.452 2.522v16.381H0v.017zm17.55-.998V5.044l2.775-2.032-2.776-2.03H.982v19.952h16.567z"/>
        <path fill="#FF80A7" fill-rule="nonzero" d="M20.342 3.012l-2.793 2.031v15.908H.982V.998h16.567z"/>
        <path fill="#000" fill-rule="nonzero" stroke="#000" stroke-linecap="round" stroke-linejoin="round" stroke-width=".846" d="M9.24 10.73c0 .88-.71 1.59-1.59 1.59-.88 0-1.592-.71-1.592-1.59H9.24z"/>
        <g fill-rule="nonzero">
            <path fill="#C8C8C8" d="M10.29 11.152c-.153 0-.305-.05-.44-.118-.018.017-.035.017-.052.034l-.016.017-.034.017c-.017.016-.051.016-.085.033h-.017l-.068.017h-.016c-.051.017-.119.017-.17.017-.05 0-.101 0-.169-.017h-.017l-.068-.017h-.016c-.034-.017-.051-.017-.085-.033 0 0-.017-.017-.034-.017-.017-.017-.034-.017-.05-.034-.018.017-.035.017-.051.034l-.017.017-.034.016c-.017.017-.051.017-.068.034h-.017l-.068.017h-.016c-.051.017-.119.017-.17.017-.05 0-.101 0-.169-.017h-.017l-.068-.017h-.016c-.034-.017-.051-.017-.085-.034 0 0-.017-.016-.034-.016-.017-.017-.034-.017-.05-.034-.018.017-.035.017-.051.034h-.017l-.034.016c-.017.017-.051.017-.085.034H7.87l-.067.017h-.017c-.051.017-.119.017-.17.017-.05 0-.101 0-.169-.017H7.43l-.067-.017h-.017c-.034-.017-.051-.017-.085-.034 0 0-.017-.016-.034-.016-.017-.017-.034-.017-.05-.034-.018.017-.034.017-.051.034l-.017.016-.034.017c-.017.017-.05.017-.068.034H6.99l-.067.017h-.017c-.051.017-.119.017-.17.017-.05 0-.101 0-.169-.017H6.55l-.067-.017h-.017c-.034-.017-.051-.017-.085-.034 0 0-.017-.017-.034-.017-.017-.016-.034-.016-.05-.033-.018.017-.034.017-.051.033l-.017.017-.034.017c-.017.017-.05.017-.068.034H6.11l-.067.017h-.017c-.051.017-.119.017-.17.017-.05 0-.101 0-.169-.017H5.67l-.067-.017h-.017c-.034-.017-.051-.017-.085-.034 0 0-.017-.017-.034-.017-.017-.017-.034-.017-.05-.033a.82.82 0 0 1-.66.084.793.793 0 0 1-.508-.39.857.857 0 0 1-.085-.642l.44-1.659v-.017c0-.016.017-.033.017-.067.017-.034.017-.051.034-.068.017-.017.017-.034.034-.068.017-.033.034-.05.05-.067l.051-.051c.017-.017.034-.034.068-.05.017-.018.034-.035.068-.052.033-.017.05-.033.067-.05s.051-.017.068-.034c.017-.017.034-.017.068-.017h.017l.033-.017c.017 0 .034 0 .051-.017.034 0 .051-.017.085-.017h.169c.034 0 .05 0 .085.017.017 0 .034 0 .067.017H5.686c.017 0 .05.017.068.034.017 0 .05.017.068.034.016 0 .016.017.033.017s.017-.017.034-.017c.017-.017.051-.017.068-.034.034-.017.05-.017.068-.034h.017l.033-.017c.017 0 .034 0 .051-.017.034 0 .05-.017.085-.017h.169c.034 0 .05 0 .085.017.017 0 .033 0 .067.017H6.583c.017 0 .05.017.068.017.034.017.05.017.067.034.017 0 .017.017.034.017s.017-.017.034-.017c.017-.017.05-.017.068-.034.017-.017.05-.017.068-.034h.016l.034-.017c.017 0 .034 0 .051-.017.034 0 .05-.017.085-.017h.169c.034 0 .05 0 .085.017.016 0 .033 0 .067.017H7.48c.017 0 .05.017.068.034.017.017.05.017.067.034.017 0 .017.017.034.017s.017-.017.034-.017c.017-.017.05-.017.068-.034.017-.017.05-.017.067-.034h.017l.034-.017c.017 0 .034 0 .051-.017.034 0 .05-.017.085-.017h.169c.034 0 .05 0 .084.017.017 0 .034 0 .068.017H8.377c.017 0 .05.017.068.034.017.017.05.017.067.034.017 0 .017.017.034.017s.017-.017.034-.017c.017-.017.05-.017.068-.034.017-.017.05-.017.067-.017h.017l.034-.017c.017 0 .034 0 .05-.017.035 0 .052-.017.086-.017h.169c.034 0 .05 0 .084.017.017 0 .034 0 .068.017H9.274c.017 0 .05.017.068.034.016 0 .033.017.067.034.017 0 .034.017.034.017.017 0 .017-.017.034-.017.017-.017.05-.017.068-.034.017-.017.05-.017.067-.034h.017l.034-.017c.017 0 .034 0 .05-.017.035 0 .052-.017.085-.017h.17c.034 0 .05 0 .084.017.017 0 .051 0 .068.017H10.171c.017 0 .05.017.067.017.017.017.051.017.068.034.017.017.05.034.068.05.034.018.05.035.068.052l.05.05c.034.034.051.051.051.068.017.017.034.034.05.068.018.034.035.05.052.067.017.017.017.034.033.068.017.034.017.05.034.068v.017l.017.034.44 1.641c.051.22.034.44-.084.643a.781.781 0 0 1-.508.39c-.152.033-.22.033-.288.033z"/>
            <path fill="#000" d="M9.85 8.258H9.967c.017 0 .034.017.05.017.017 0 .017.017.034.017s.017.017.034.017.017.017.034.017l.034.034.034.034c.017.017.017.017.017.034s.017.017.017.034c0 .016.016.016.016.033s.017.034.017.034v.017l.44 1.642a.424.424 0 0 1-.304.524c-.034.017-.068.017-.102.017a.413.413 0 0 1-.406-.321l-.034-.102-.034.102v.017c0 .017 0 .017-.017.033 0 .017-.016.034-.016.051l-.017.017c-.017.017-.017.034-.034.034l-.017.017c-.017.017-.034.034-.05.034 0 0-.018 0-.018.017-.017.017-.034.034-.068.034h-.016c-.017 0-.034.016-.051.016h-.017-.017c-.034 0-.068.017-.102.017-.033 0-.067 0-.101-.017h-.017-.017c-.017 0-.034-.016-.05-.016h-.018c-.017-.017-.05-.017-.067-.034 0 0-.017 0-.017-.017l-.034-.034-.017-.017c-.017-.017-.017-.034-.034-.034l-.017-.017c0-.017-.017-.034-.017-.05 0-.017 0-.017-.017-.034v-.017l-.034-.102-.033.102v.017c0 .017 0 .017-.017.033 0 .017-.017.034-.017.051l-.017.017c-.017.017-.017.034-.034.034l-.017.017c-.017.017-.034.034-.05.034 0 0-.018 0-.018.017-.017.017-.033.034-.067.034H8.63c-.017 0-.034.016-.051.016h-.017-.017c-.034 0-.068.017-.101.017-.034 0-.068 0-.102-.017h-.017-.017c-.017 0-.034-.016-.05-.016h-.017c-.017-.017-.051-.017-.068-.034 0 0-.017 0-.017-.017-.017-.017-.034-.034-.05-.034l-.018-.017c-.017-.017-.017-.034-.034-.034l-.017-.017c0-.017-.016-.034-.016-.05 0-.017 0-.017-.017-.034v-.017l-.034-.102-.034.102v.017c0 .017 0 .017-.017.033 0 .017-.017.034-.017.051l-.017.017c-.017.017-.017.034-.034.034l-.017.017-.033.034-.017.017c-.017.017-.034.034-.068.034H7.7c-.017 0-.034.016-.05.016h-.018-.017c-.033 0-.067.017-.101.017s-.068 0-.102-.017h-.017-.017c-.016 0-.033-.016-.05-.016H7.31c-.017-.017-.051-.017-.068-.034 0 0-.017 0-.017-.017-.017-.017-.034-.034-.05-.034l-.018-.017c-.016-.017-.016-.034-.033-.034l-.017-.017c0-.017-.017-.034-.017-.05 0-.017 0-.017-.017-.034v-.017l-.034-.102-.034.102v.017c0 .017 0 .017-.017.033 0 .017-.017.034-.017.051l-.017.017c-.017.017-.017.034-.033.034l-.017.017-.034.034-.017.017c-.017.017-.034.034-.068.034H6.77c-.017 0-.034.016-.05.016h-.017-.017c-.034 0-.068.017-.102.017-.034 0-.068 0-.101-.017h-.017-.017c-.017 0-.034-.016-.051-.016H6.38c-.017-.017-.05-.017-.068-.034 0 0-.017 0-.017-.017-.017-.017-.033-.034-.05-.034l-.017-.017c-.017-.017-.017-.034-.034-.034l-.017-.017c0-.017-.017-.034-.017-.05 0-.017 0-.017-.017-.034v-.017l-.034-.102-.034.102v.017c0 .017 0 .017-.017.033 0 .017-.016.034-.016.051l-.017.017c-.017.017-.017.034-.034.034l-.017.017c-.017.017-.034.034-.05.034 0 0-.018 0-.018.017-.017.017-.034.034-.068.034h-.016c-.017 0-.034.016-.051.016h-.017-.017c-.034 0-.068.017-.102.017-.033 0-.067 0-.101-.017h-.017H5.5c-.017 0-.034-.016-.05-.016h-.018c-.017-.017-.05-.017-.067-.034 0 0-.017 0-.017-.017l-.034-.034-.017-.017c-.017-.017-.017-.034-.034-.034l-.017-.017c0-.017-.017-.034-.017-.05 0-.017 0-.017-.017-.034v-.017l-.034-.102-.033.102a.432.432 0 0 1-.407.321c-.033 0-.067 0-.101-.017a.444.444 0 0 1-.305-.524l.44-1.642V8.53c0-.017.017-.034.017-.034 0-.017.017-.017.017-.033 0-.017.017-.017.017-.034s.017-.017.017-.034.017-.017.034-.034l.034-.034c.017-.017.017-.017.034-.017.016 0 .016-.017.033-.017s.017-.017.034-.017.034-.017.051-.017H5.297c.017 0 .034.017.05.017.018 0 .018.017.035.017.016 0 .016.017.033.017s.017.017.034.017l.034.034.034.034c.017.017.017.017.017.034s.017.017.017.034c0 .016.017.016.017.033s.017.034.017.034v.017l.033.102.034-.102V8.53c0-.017.017-.034.017-.034 0-.017.017-.017.017-.033 0-.017.017-.017.017-.034s.017-.017.017-.034.017-.017.034-.034l.034-.034c.017 0 .017-.017.034-.017.016 0 .016-.017.033-.017s.017-.017.034-.017.034-.017.051-.017H6.177c.017 0 .034.017.05.017.018 0 .018.017.035.017.016 0 .016.017.033.017s.017.017.034.017l.034.034.034.034c.017.017.017.017.017.034s.017.017.017.034c0 .016.017.016.017.033s.017.034.017.034v.017l.033.102.034-.102V8.53c0-.017.017-.034.017-.034 0-.017.017-.017.017-.033 0-.017.017-.017.017-.034s.017-.017.017-.034.017-.017.034-.034l.034-.034c.017 0 .017-.017.034-.017.016 0 .016-.017.033-.017s.017-.017.034-.017.034-.017.051-.017H7.057c.017 0 .034.017.05.017.018 0 .018.017.035.017.016 0 .016.017.033.017s.017.017.034.017l.034.034.034.034c.017.017.017.017.017.034s.017.017.017.034c0 .016.017.016.017.033s.017.034.017.034v.017l.033.102.034-.102V8.53c0-.017.017-.034.017-.034 0-.017.017-.017.017-.033 0-.017.017-.017.017-.034s.017-.017.017-.034l.034-.034.034-.034c.017-.017.017-.017.034-.017.016 0 .016-.017.033-.017s.017-.017.034-.017.034-.017.051-.017H7.937c.017 0 .034.017.05.017.018 0 .018.017.035.017.016 0 .016.017.033.017s.017.017.034.017l.034.034c.017.017.017.017.017.034l.034.034c0 .017.017.017.017.034 0 .016.017.016.017.033s.017.034.017.034v.017l.033.102.034-.102V8.53c0-.017.017-.034.017-.034 0-.017.017-.017.017-.033 0-.017.017-.017.017-.034s.017-.017.017-.034l.034-.034.034-.034c.017-.017.017-.017.034-.017.016 0 .016-.017.033-.017s.017-.017.034-.017.034-.017.051-.017H8.817c.017 0 .034.017.05.017.018 0 .018.017.035.017.016 0 .016.017.033.017s.017.017.034.017l.034.034.034.034c.017.017.017.017.017.034s.017.017.017.034c0 .016.017.016.017.033s.017.034.017.034v.017l.033.102.034-.102V8.53c0-.017.017-.034.017-.034 0-.017.017-.017.017-.033 0-.017.017-.017.017-.034s.017-.017.017-.034.017-.017.034-.034l.034-.034c.017 0 .017-.017.034-.017.016 0 .016-.017.033-.017s.017-.017.034-.017.034-.017.051-.017h.389zm0-.846c-.018 0-.018 0 0 0h-.12c-.033 0-.084.017-.1.017-.035 0-.052.017-.102.017l-.051.017-.034.017h-.017c-.017 0-.017 0-.034-.017-.034-.017-.05-.017-.084-.034s-.068-.017-.102-.017c-.034 0-.068-.017-.101-.017h-.237c-.034 0-.068 0-.102.017-.017 0-.05.017-.084.017l-.068.017-.034.017h-.017c-.017 0-.017 0-.034-.017s-.05-.017-.067-.017c-.034-.017-.068-.017-.102-.017-.034 0-.068-.017-.118-.017h-.237c-.034 0-.068 0-.102.017-.017 0-.05.017-.085.017l-.067.017-.034.017H7.7c-.017 0-.017 0-.034-.017-.034-.017-.05-.017-.084-.017-.034-.017-.068-.017-.102-.017-.034 0-.068-.017-.102-.017h-.236c-.034 0-.085.017-.102.017-.034 0-.05.017-.102.017l-.05.017-.034.017h-.017c-.017 0-.017 0-.034-.017-.034-.017-.05-.017-.085-.034-.033-.017-.067-.017-.101-.017s-.068-.017-.119-.017h-.236c-.034 0-.085.017-.102.017-.034 0-.05.017-.102.017l-.05.017-.034.017h-.017c-.017 0-.017 0-.034-.017-.034-.017-.05-.017-.085-.017-.033-.017-.067-.017-.101-.017s-.068-.017-.119-.017h-.236c-.034 0-.085.017-.102.017-.017 0-.05.017-.085.017l-.067.017-.034.017c-.034.017-.05.017-.085.034l-.101.05c-.051.035-.085.052-.102.068-.034.017-.068.051-.101.068-.051.034-.068.068-.085.085l-.085.084c-.033.034-.067.085-.067.102a.354.354 0 0 1-.068.101l-.05.102c-.018.034-.018.05-.035.085-.017.033-.017.05-.033.084l-.44 1.642a1.27 1.27 0 0 0 .896 1.557c.102.034.22.05.322.05.152 0 .305-.033.44-.084.017 0 .017.017.034.017s.05.017.068.017l.084.017h.034c.068.017.152.017.22.017.085 0 .17-.017.254-.034.017 0 .05-.017.068-.017l.067-.017.034-.017h.017c.017 0 .034.017.034.017.017 0 .05.017.068.017l.084.017H6.6a.965.965 0 0 0 .22.017c.085 0 .17-.017.254-.034.017 0 .05-.017.068-.017l.067-.017.034-.017h.017c.017 0 .034.017.034.017.017 0 .05.017.068.017l.084.017h.034c.068.017.152.017.22.017.085 0 .17-.017.254-.034.017 0 .05-.017.068-.017l.067-.017.034-.017h.017c.017 0 .034.017.034.017.017 0 .05.017.068.017l.084.017h.034a.965.965 0 0 0 .22.017c.085 0 .17-.017.254-.034.017 0 .05-.017.068-.017l.067-.017.034-.017h.017c.017 0 .034.017.034.017.017 0 .05.017.068.017l.084.017h.034a.965.965 0 0 0 .22.017c.085 0 .17-.017.254-.034.017 0 .05-.017.068-.017l.067-.017.034-.017H9.9a1.173 1.173 0 0 0 .778.034 1.27 1.27 0 0 0 .897-1.557l-.44-1.641-.017-.051-.016-.034c-.017-.034-.017-.05-.034-.068l-.051-.101c-.017-.034-.034-.068-.068-.102-.017-.017-.034-.067-.084-.101-.017-.034-.051-.051-.068-.085l-.559.542.559-.542-.085-.085a.354.354 0 0 0-.101-.067c-.017-.017-.068-.034-.119-.068l-.101-.05c-.034-.018-.051-.018-.102-.035-.034-.016-.05-.016-.084-.016-.034-.017-.068-.017-.102-.017-.034 0-.068-.017-.101-.017-.068.084-.119.084-.153.084z"/>
        </g>
        <g fill-rule="nonzero">
            <path fill="#FFF" d="M3.47 5.5a.838.838 0 0 1-.847-.846V2.962c0-.474.372-.847.846-.847h2.708c.474 0 .846.373.846.847v1.692a.838.838 0 0 1-.846.846H3.469z"/>
            <path fill="#000" d="M6.177 2.538c.237 0 .423.187.423.424v1.692a.419.419 0 0 1-.423.423H3.469a.419.419 0 0 1-.423-.423V2.962c0-.237.186-.424.423-.424h2.708zm0-.846H3.469c-.694 0-1.269.576-1.269 1.27v1.692c0 .694.575 1.27 1.27 1.27h2.707c.694 0 1.27-.576 1.27-1.27V2.962c0-.694-.576-1.27-1.27-1.27z"/>
        </g>
        <g fill-rule="nonzero">
            <path fill="#FFF" d="M9.138 5.5a.838.838 0 0 1-.846-.846V2.962c0-.474.373-.847.846-.847h2.708c.474 0 .846.373.846.847v1.692a.838.838 0 0 1-.846.846H9.138z"/>
            <path fill="#000" d="M11.846 2.538c.237 0 .423.187.423.424v1.692a.419.419 0 0 1-.423.423H9.138a.419.419 0 0 1-.423-.423V2.962c0-.237.187-.424.423-.424h2.708zm0-.846H9.138c-.693 0-1.269.576-1.269 1.27v1.692c0 .694.576 1.27 1.27 1.27h2.707c.694 0 1.27-.576 1.27-1.27V2.962c0-.694-.576-1.27-1.27-1.27z"/>
        </g>
        <path stroke="#000" stroke-width=".846" d="M6.6 3.808h2.115"/>
        <path fill="#000" fill-rule="nonzero" d="M5.67 4.146c0 .474-.373.203-.847.203s-.846.254-.846-.203c0-.474.372-.846.846-.846a.86.86 0 0 1 .846.846zM11.338 4.146c0 .474-.372.203-.846.203s-.846.254-.846-.203c0-.474.372-.846.846-.846a.86.86 0 0 1 .846.846z"/>
    </g>
</svg>
