<svg xmlns="http://www.w3.org/2000/svg" width="195" height="150" viewBox="0 0 195 150">
    <g fill="none" fill-rule="evenodd" transform="translate(1 1)">
        <ellipse cx="164.289" cy="37.752" fill="#FFF" stroke="#E4E4E4" stroke-width=".8" rx="28.711" ry="28.917"/>
        <ellipse cx="130.405" cy="119.083" fill="#FFF" stroke="#E4E4E4" stroke-width=".8" rx="28.711" ry="28.917"/>
        <ellipse cx="40.637" cy="104.033" fill="#FFF" stroke="#E4E4E4" stroke-width=".8" rx="28.711" ry="28.917"/>
        <path fill="#000" fill-rule="nonzero" d="M27.928 117.818V91.81h21.065l4.867 3.572-4.069 2.99v19.426H27.928v.02zm20.686-1.184V97.79l3.272-2.408-3.272-2.408h-19.53v23.66h19.53z"/>
        <path fill="#FF80A7" fill-rule="nonzero" d="M51.906 95.382l-3.292 2.408v18.864h-19.53v-23.66h19.53z"/>
        <path fill="#000" fill-rule="nonzero" stroke="#000" stroke-linecap="round" stroke-linejoin="round" d="M38.82 104.533a1.879 1.879 0 0 1-1.876 1.887 1.879 1.879 0 0 1-1.875-1.887h3.75z"/>
        <g fill-rule="nonzero">
            <path fill="#C8C8C8" d="M40.056 105.035c-.18 0-.359-.06-.518-.14-.02.02-.04.02-.06.04l-.02.02-.04.02c-.02.02-.06.02-.1.04h-.02l-.08.02h-.02c-.06.02-.14.02-.199.02-.06 0-.12 0-.2-.02h-.02l-.08-.02h-.02c-.04-.02-.06-.02-.099-.04 0 0-.02-.02-.04-.02-.02-.02-.04-.02-.06-.04-.02.02-.04.02-.06.04l-.02.02-.04.02c-.02.02-.06.02-.08.04h-.02l-.079.02h-.02c-.06.02-.14.02-.2.02s-.119 0-.199-.02h-.02l-.08-.02h-.02c-.04-.02-.06-.02-.1-.04 0 0-.02-.02-.04-.02-.02-.02-.04-.02-.059-.04-.02.02-.04.02-.06.04h-.02l-.04.02c-.02.02-.06.02-.1.04h-.02l-.08.02h-.02c-.059.02-.139.02-.199.02s-.12 0-.2-.02h-.019l-.08-.02h-.02c-.04-.02-.06-.02-.1-.04 0 0-.02-.02-.04-.02-.02-.02-.04-.02-.06-.04-.02.02-.04.02-.06.04l-.02.02-.039.02c-.02.02-.06.02-.08.04h-.02l-.08.02h-.02c-.06.02-.14.02-.199.02-.06 0-.12 0-.2-.02h-.02l-.08-.02h-.02c-.039-.02-.059-.02-.099-.04 0 0-.02-.02-.04-.02-.02-.02-.04-.02-.06-.04-.02.02-.04.02-.06.04l-.02.02-.04.02c-.02.02-.06.02-.08.04h-.019l-.08.02h-.02c-.06.02-.14.02-.2.02s-.119 0-.199-.02h-.02l-.08-.02h-.02c-.04-.02-.06-.02-.1-.04 0 0-.02-.02-.039-.02-.02-.02-.04-.02-.06-.04a.962.962 0 0 1-.778.1.936.936 0 0 1-.598-.462c-.14-.24-.16-.501-.1-.762l.519-1.967v-.02c0-.02.02-.04.02-.08.02-.04.02-.06.04-.08.02-.02.02-.04.04-.08s.04-.06.06-.08l.059-.061c.02-.02.04-.04.08-.06.02-.02.04-.04.08-.06.04-.02.06-.04.08-.06.02-.02.06-.02.08-.04.02-.021.04-.021.079-.021h.02l.04-.02c.02 0 .04 0 .06-.02.04 0 .06-.02.1-.02h.199c.04 0 .06 0 .1.02.02 0 .04 0 .08.02h.06c.02 0 .06.02.08.04.019 0 .059.02.079.04.02 0 .02.02.04.02s.02-.02.04-.02c.02-.02.06-.02.08-.04.04-.02.06-.02.08-.04h.02l.04-.02c.019 0 .039 0 .059-.02.04 0 .06-.02.1-.02h.2c.04 0 .059 0 .099.02.02 0 .04 0 .08.02h.06c.02 0 .06.02.08.02.04.02.06.02.08.04.02 0 .02.02.039.02.02 0 .02-.02.04-.02.02-.02.06-.02.08-.04.02-.02.06-.02.08-.04h.02l.04-.02c.02 0 .04 0 .06-.02.04 0 .059-.02.099-.02h.2c.04 0 .06 0 .1.02.02 0 .04 0 .079.02h.06c.02 0 .06.02.08.04.02.02.06.02.08.04.02 0 .02.02.04.02s.02-.02.04-.02c.02-.02.059-.02.079-.04.02-.02.06-.02.08-.04h.02l.04-.02c.02 0 .04 0 .06-.02.04 0 .06-.02.1-.02h.199c.04 0 .06 0 .1.02.02 0 .04 0 .08.02h.06c.019 0 .059.02.079.04.02.02.06.02.08.04.02 0 .02.02.04.02s.02-.02.04-.02c.02-.02.06-.02.08-.04.02-.02.06-.02.079-.02h.02l.04-.02c.02 0 .04 0 .06-.02.04 0 .06-.02.1-.02h.199c.04 0 .06 0 .1.02.02 0 .04 0 .08.02h.06c.02 0 .06.02.08.04.02 0 .039.02.079.04.02 0 .04.02.04.02.02 0 .02-.02.04-.02.02-.02.06-.02.08-.04.02-.02.06-.02.08-.04h.02l.04-.02c.02 0 .039 0 .059-.02.04 0 .06-.02.1-.02h.2c.04 0 .06 0 .099.02.02 0 .06 0 .08.02h.06c.02 0 .06.02.08.02.02.02.06.02.08.04.02.02.059.04.079.06.04.02.06.04.08.06l.06.06c.04.04.06.06.06.08.02.02.04.04.06.081.02.04.04.06.06.08.02.02.02.04.039.08.02.04.02.06.04.08v.02l.02.041.519 1.947c.06.26.04.521-.1.762a.921.921 0 0 1-.599.462c-.18.04-.259.04-.339.04z"/>
            <path fill="#000" d="M39.538 101.603h.14c.02 0 .04.02.06.02.019 0 .019.02.039.02s.02.02.04.02.02.02.04.02l.04.04.04.04c.02.02.02.02.02.04 0 .021.02.021.02.041s.02.02.02.04.02.04.02.04v.02l.518 1.947c.08.26-.08.542-.36.622-.039.02-.079.02-.119.02a.488.488 0 0 1-.479-.381l-.04-.12-.04.12v.02c0 .02 0 .02-.02.04 0 .02-.02.04-.02.06l-.02.02c-.02.02-.02.04-.04.04l-.019.02c-.02.02-.04.04-.06.04 0 0-.02 0-.02.02-.02.02-.04.04-.08.04h-.02c-.02 0-.04.02-.06.02h-.02-.02c-.04 0-.08.021-.119.021-.04 0-.08 0-.12-.02h-.02-.02c-.02 0-.04-.02-.06-.02h-.02c-.02-.02-.06-.02-.08-.04 0 0-.02 0-.02-.02l-.039-.04-.02-.02c-.02-.02-.02-.04-.04-.04l-.02-.02c0-.02-.02-.04-.02-.06 0-.021 0-.021-.02-.041v-.02l-.04-.12-.04.12v.02c0 .02 0 .02-.02.04 0 .02-.02.04-.02.06l-.02.02c-.02.02-.02.04-.04.04l-.02.02c-.02.02-.04.04-.059.04 0 0-.02 0-.02.02-.02.02-.04.04-.08.04h-.02c-.02 0-.04.02-.06.02h-.02-.02c-.04 0-.08.021-.12.021-.039 0-.079 0-.119-.02h-.02-.02c-.02 0-.04-.02-.06-.02h-.02c-.02-.02-.06-.02-.08-.04 0 0-.02 0-.02-.02-.02-.02-.04-.04-.06-.04l-.02-.02c-.019-.02-.019-.04-.039-.04l-.02-.02c0-.02-.02-.04-.02-.06 0-.021 0-.021-.02-.041v-.02l-.04-.12-.04.12v.02c0 .02 0 .02-.02.04 0 .02-.02.04-.02.06l-.02.02c-.02.02-.02.04-.04.04l-.02.02-.04.04-.02.02c-.02.02-.039.04-.079.04h-.02c-.02 0-.04.02-.06.02h-.02-.02c-.04 0-.08.021-.12.021-.04 0-.08 0-.119-.02h-.02-.02c-.02 0-.04-.02-.06-.02h-.02c-.02-.02-.06-.02-.08-.04 0 0-.02 0-.02-.02-.02-.02-.04-.04-.06-.04l-.02-.02c-.02-.02-.02-.04-.04-.04l-.02-.02c0-.02-.019-.04-.019-.06 0-.021 0-.021-.02-.041v-.02l-.04-.12-.04.12v.02c0 .02 0 .02-.02.04 0 .02-.02.04-.02.06l-.02.02c-.02.02-.02.04-.04.04l-.02.02-.04.04-.02.02c-.02.02-.04.04-.08.04h-.019c-.02 0-.04.02-.06.02h-.02-.02c-.04 0-.08.021-.12.021-.04 0-.08 0-.12-.02h-.02-.019c-.02 0-.04-.02-.06-.02h-.02c-.02-.02-.06-.02-.08-.04 0 0-.02 0-.02-.02-.02-.02-.04-.04-.06-.04l-.02-.02c-.02-.02-.02-.04-.04-.04l-.02-.02c0-.02-.02-.04-.02-.06 0-.021 0-.021-.02-.041v-.02l-.039-.12-.04.12v.02c0 .02 0 .02-.02.04 0 .02-.02.04-.02.06l-.02.02c-.02.02-.02.04-.04.04l-.02.02c-.02.02-.04.04-.06.04 0 0-.02 0-.02.02-.02.02-.04.04-.08.04h-.02c-.02 0-.039.02-.059.02h-.02-.02c-.04 0-.08.021-.12.021-.04 0-.08 0-.12-.02h-.02-.02c-.02 0-.039-.02-.059-.02h-.02c-.02-.02-.06-.02-.08-.04 0 0-.02 0-.02-.02l-.04-.04-.02-.02c-.02-.02-.02-.04-.04-.04l-.02-.02c0-.02-.02-.04-.02-.06 0-.021 0-.021-.02-.041v-.02l-.04-.12-.04.12a.51.51 0 0 1-.478.381c-.04 0-.08 0-.12-.02a.527.527 0 0 1-.359-.622l.52-1.947v-.02c0-.02.019-.04.019-.04 0-.02.02-.02.02-.04s.02-.02.02-.04.02-.02.02-.04.02-.02.04-.04l.04-.04c.02-.02.02-.02.04-.02s.02-.02.04-.02.02-.02.04-.02.04-.02.06-.02h.279c.02 0 .04.02.06.02.02 0 .02.02.04.02s.02.02.04.02.02.02.039.02l.04.04.04.04c.02.02.02.02.02.04s.02.02.02.04.02.02.02.04.02.04.02.04v.02l.04.12.04-.12v-.02c0-.02.02-.04.02-.04 0-.02.02-.02.02-.04s.02-.02.02-.04.02-.02.02-.04.02-.02.04-.04l.039-.04c.02 0 .02-.02.04-.02s.02-.02.04-.02.02-.02.04-.02.04-.02.06-.02h.279c.02 0 .04.02.06.02.02 0 .02.02.04.02s.02.02.04.02.02.02.04.02l.04.04.04.04c.02.02.02.02.02.04s.019.02.019.04.02.02.02.04.02.04.02.04v.02l.04.12.04-.12v-.02c0-.02.02-.04.02-.04 0-.02.02-.02.02-.04s.02-.02.02-.04.02-.02.02-.04.02-.02.04-.04l.04-.04c.02 0 .02-.02.04-.02s.02-.02.04-.02c.019 0 .019-.02.039-.02s.04-.02.06-.02h.28c.019 0 .039.02.059.02.02 0 .02.02.04.02s.02.02.04.02.02.02.04.02l.04.04.04.04c.02.02.02.02.02.04s.02.02.02.04.02.02.02.04.02.04.02.04v.02l.04.12.039-.12v-.02c0-.02.02-.04.02-.04 0-.02.02-.02.02-.04s.02-.02.02-.04.02-.02.02-.04l.04-.04.04-.04c.02-.02.02-.02.04-.02s.02-.02.04-.02.02-.02.04-.02.04-.02.06-.02h.279c.02 0 .04.02.06.02.02 0 .02.02.04.02s.02.02.039.02c.02 0 .02.02.04.02l.04.04c.02.02.02.02.02.04l.04.04c0 .02.02.02.02.04s.02.02.02.04.02.04.02.04v.02l.04.12.04-.12v-.02c0-.02.02-.04.02-.04 0-.02.02-.02.02-.04s.02-.02.02-.04.02-.02.02-.04l.039-.04.04-.04c.02-.02.02-.02.04-.02s.02-.02.04-.02.02-.02.04-.02.04-.02.06-.02h.279c.02 0 .04.02.06.02.02 0 .02.02.04.02s.02.02.04.02.02.02.04.02l.04.04.04.04c.019.02.019.02.019.04s.02.02.02.04.02.02.02.04.02.04.02.04v.02l.04.12.04-.12v-.02c0-.02.02-.04.02-.04 0-.02.02-.02.02-.04s.02-.02.02-.04.02-.02.02-.04.02-.02.04-.04l.04-.04c.02 0 .02-.02.04-.02s.02-.02.039-.02c.02 0 .02-.02.04-.02s.04-.02.06-.02H39.538zm0-1.003c-.02 0-.02 0 0 0h-.14c-.04 0-.1.02-.12.02-.04 0-.06.02-.12.02l-.06.02-.04.02h-.02c-.02 0-.02 0-.039-.02-.04-.02-.06-.02-.1-.04-.04-.02-.08-.02-.12-.02-.04 0-.08-.02-.12-.02h-.279c-.04 0-.08 0-.12.02-.02 0-.059.02-.099.02l-.08.02-.04.02h-.02c-.02 0-.02 0-.04-.02s-.06-.02-.08-.02c-.04-.02-.079-.02-.119-.02-.04 0-.08-.02-.14-.02h-.279c-.04 0-.08 0-.12.02-.02 0-.06.02-.1.02l-.079.02-.04.02h-.02c-.02 0-.02 0-.04-.02-.04-.02-.06-.02-.1-.02-.04-.02-.08-.02-.12-.02-.04 0-.079-.02-.119-.02h-.28c-.04 0-.099.02-.119.02-.04 0-.06.02-.12.02l-.06.02-.04.02h-.02c-.02 0-.02 0-.04-.02-.039-.02-.059-.02-.099-.04-.04-.02-.08-.02-.12-.02-.04 0-.08-.02-.14-.02h-.279c-.04 0-.1.02-.12.02-.04 0-.059.02-.119.02l-.06.02-.04.02h-.02c-.02 0-.02 0-.04-.02-.04-.02-.06-.02-.1-.02-.04-.02-.079-.02-.119-.02-.04 0-.08-.02-.14-.02h-.279c-.04 0-.1.02-.12.02-.02 0-.06.02-.1.02l-.079.02-.04.02c-.04.02-.06.02-.1.04l-.12.06c-.06.04-.1.06-.119.08-.04.02-.08.06-.12.08-.06.041-.08.081-.1.101l-.1.1c-.04.04-.079.1-.079.121-.02.04-.04.08-.08.12l-.06.12c-.02.04-.02.061-.04.101-.02.04-.02.06-.04.1l-.518 1.947c-.22.803.26 1.626 1.057 1.846.12.04.26.06.38.06.179 0 .358-.04.518-.1.02 0 .02.02.04.02s.06.02.08.02l.1.02h.04c.079.02.179.02.259.02.1 0 .199-.02.299-.04.02 0 .06-.02.08-.02l.08-.02.04-.02h.02c.02 0 .04.02.04.02.019 0 .059.02.079.02l.1.02h.04c.08.02.179.02.259.02.1 0 .2-.02.299-.04.02 0 .06-.02.08-.02l.08-.02.04-.02h.02c.02 0 .04.02.04.02.02 0 .06.02.08.02l.099.02h.04c.08.02.18.02.26.02.099 0 .199-.02.298-.04.02 0 .06-.02.08-.02l.08-.02.04-.02h.02c.02 0 .04.02.04.02.02 0 .06.02.08.02l.1.02h.04c.079.02.179.02.258.02.1 0 .2-.02.3-.04.02 0 .06-.02.08-.02l.08-.02.04-.02h.02c.02 0 .039.02.039.02.02 0 .06.02.08.02l.1.02h.04c.08.02.179.02.259.02.1 0 .2-.02.299-.04.02 0 .06-.02.08-.02l.08-.02.04-.02h.02a1.375 1.375 0 0 0 .918.04 1.507 1.507 0 0 0 1.056-1.846l-.518-1.947-.02-.06-.02-.04c-.02-.04-.02-.06-.04-.08l-.06-.12c-.02-.041-.04-.081-.08-.121-.02-.02-.04-.08-.1-.12-.02-.04-.06-.06-.08-.101l-.658.642.659-.642-.1-.1c-.04-.04-.08-.06-.12-.08-.02-.02-.08-.04-.14-.08l-.12-.061c-.039-.02-.059-.02-.119-.04-.04-.02-.06-.02-.1-.02-.04-.02-.08-.02-.12-.02-.04 0-.079-.02-.119-.02-.08.1-.14.1-.18.1z"/>
        </g>
        <g fill-rule="nonzero">
            <path fill="#FFF" d="M32.017 98.332a.99.99 0 0 1-.997-1.003v-2.007a.99.99 0 0 1 .997-1.003h3.192a.99.99 0 0 1 .997 1.003v2.007a.99.99 0 0 1-.997 1.003h-3.192z"/>
            <path fill="#000" d="M35.209 94.82c.28 0 .498.221.498.502v2.007c0 .28-.219.502-.498.502h-3.192a.495.495 0 0 1-.499-.502v-2.007c0-.28.22-.502.5-.502h3.19zm0-1.003h-3.192c-.818 0-1.496.682-1.496 1.505v2.007c0 .823.678 1.505 1.496 1.505h3.192c.818 0 1.496-.682 1.496-1.505v-2.007c0-.823-.678-1.505-1.496-1.505z"/>
        </g>
        <g fill-rule="nonzero">
            <path fill="#FFF" d="M38.7 98.332a.99.99 0 0 1-.998-1.003v-2.007a.99.99 0 0 1 .998-1.003h3.191a.99.99 0 0 1 .998 1.003v2.007a.99.99 0 0 1-.998 1.003H38.7z"/>
            <path fill="#000" d="M41.891 94.82c.28 0 .5.221.5.502v2.007c0 .28-.22.502-.5.502H38.7a.495.495 0 0 1-.499-.502v-2.007c0-.28.22-.502.499-.502h3.191zm0-1.003H38.7c-.818 0-1.496.682-1.496 1.505v2.007c0 .823.678 1.505 1.496 1.505h3.191c.818 0 1.497-.682 1.497-1.505v-2.007c0-.823-.679-1.505-1.497-1.505z"/>
        </g>
        <path stroke="#000" d="M35.707 96.325h2.494"/>
        <path fill="#000" fill-rule="nonzero" d="M34.61 96.727c0 .562-.439.24-.997.24-.559 0-.997.302-.997-.24a.99.99 0 0 1 .997-1.004c.539 0 .997.462.997 1.004zM41.293 96.727c0 .562-.439.24-.997.24-.559 0-.998.302-.998-.24a.99.99 0 0 1 .998-1.004c.538 0 .997.462.997 1.004z"/>
        <ellipse cx="28.711" cy="28.917" fill="#FFF" stroke="#E4E4E4" stroke-width=".8" rx="28.711" ry="28.917"/>
        <g transform="translate(15.95 12.924)">
            <path fill="#000" fill-rule="nonzero" d="M25.28 31.437H.096V5.94L4.345.048l3.557 4.926H25.28v26.463zM23.897 6.398H7.21l-2.864-3.96-2.865 3.96v23.638h22.392V6.398h.024z"/>
            <path fill="#00FFC0" fill-rule="nonzero" d="M4.345 2.414l2.864 3.96h16.687v23.662H1.504V6.374z"/>
            <path stroke="#000" stroke-width="1.199" d="M9.835 12.435h4.178"/>
            <path fill="#FFF" fill-rule="nonzero" d="M6.851 16.056c-1.981 0-3.58-1.617-3.58-3.621S4.87 8.813 6.85 8.813c1.982 0 3.581 1.618 3.581 3.622 0 2.004-1.6 3.621-3.58 3.621z"/>
            <path fill="#000" fill-rule="nonzero" d="M6.851 9.417c1.648 0 2.984 1.352 2.984 3.018 0 1.666-1.336 3.018-2.984 3.018-1.647 0-2.984-1.352-2.984-3.018 0-1.666 1.337-3.018 2.984-3.018zm0-1.208c-2.291 0-4.177 1.908-4.177 4.226S4.56 16.66 6.85 16.66c2.292 0 4.178-1.907 4.178-4.225 0-2.342-1.862-4.226-4.178-4.226z"/>
            <ellipse cx="6.851" cy="12.435" fill="#000" fill-rule="nonzero" rx="1.194" ry="1.207"/>
            <path fill="#FFF" fill-rule="nonzero" d="M16.997 16.056c-1.981 0-3.58-1.617-3.58-3.621s1.599-3.622 3.58-3.622 3.58 1.618 3.58 3.622c0 2.004-1.599 3.621-3.58 3.621z"/>
            <path fill="#000" fill-rule="nonzero" d="M16.997 9.417c1.647 0 2.984 1.352 2.984 3.018 0 1.666-1.337 3.018-2.984 3.018s-2.984-1.352-2.984-3.018c0-1.666 1.337-3.018 2.984-3.018zm0-1.208c-2.292 0-4.178 1.908-4.178 4.226s1.886 4.225 4.178 4.225 4.178-1.907 4.178-4.225c0-2.342-1.862-4.226-4.178-4.226z"/>
            <ellipse cx="16.997" cy="12.435" fill="#000" fill-rule="nonzero" rx="1.194" ry="1.207"/>
            <path stroke="#000" stroke-linecap="round" stroke-linejoin="round" stroke-width="1.199" d="M8.212 21.489l.62-2.342M9.453 21.489l.621-2.342M10.695 21.489l.62-2.342M11.936 21.489l-.62-2.342M10.695 21.489l-.62-2.342M9.453 21.489l-.62-2.342M11.936 21.489l.62-2.342M13.154 21.489l.62-2.342M14.395 21.489l.62-2.342M15.636 21.489l-.62-2.342M14.395 21.489l-.62-2.342M13.154 21.489l-.597-2.342"/>
        </g>
        <g>
            <g transform="translate(151.777 20.483)">
                <path fill="#000" fill-rule="nonzero" d="M.065 35.091V.131h22.761l5.26 3.9-4.398 3.263V35.07H.065v.022zM22.417 33.8V6.659l3.535-2.629-3.535-2.628H1.315v32.397h21.102z"/>
                <path fill="#FF9B9B" fill-rule="nonzero" d="M25.973 4.03L22.417 6.66v27.162H1.315V1.424h21.102z"/>
                <path stroke="#000" stroke-linecap="round" stroke-linejoin="round" stroke-width="1.083" d="M13.687 16.429a2.045 2.045 0 0 0-2.91 0M10.777 16.429a2.045 2.045 0 0 0-2.91 0M13.687 16.429c.798.81 2.113.81 2.91 0M4.958 16.429c.797.81 2.112.81 2.91 0M4.958 13.471a2.127 2.127 0 0 0 0 2.958M16.597 16.429a2.127 2.127 0 0 0 0-2.958"/>
                <ellipse cx="8.32" cy="10.733" fill="#000" fill-rule="nonzero" rx="1.078" ry="1.095"/>
                <ellipse cx="13.213" cy="10.733" fill="#000" fill-rule="nonzero" rx="1.078" ry="1.095"/>
                <path fill="#FFF" fill-rule="nonzero" stroke="#000" stroke-linecap="round" stroke-linejoin="round" stroke-width="1.083" d="M14.29 7.995H7.243"/>
            </g>
        </g>
        <g>
            <path fill="#000" fill-rule="nonzero" d="M141.416 105.975v18.543l4.87 3.598-5.825 4.298h-25.209V105.95h26.164v.024zm-24.78 1.424v23.638h23.372l3.915-2.897-3.915-2.897v-17.844h-23.371z"/>
            <path fill="#FF8E00" fill-rule="nonzero" d="M143.947 128.14l-3.94-2.897v-17.868h-23.37v23.638h23.37z"/>
            <path fill="#000" fill-rule="nonzero" d="M127.713 116.937h-5.968s1.337 1.497 2.984 1.497c1.648 0 2.984-1.497 2.984-1.497zM127.713 116.937c-.811-1.087-2.1-1.787-2.984-.894-.883-.893-2.172-.169-2.984.894h5.968z"/>
            <path stroke="#000" stroke-linecap="round" stroke-linejoin="round" stroke-width="1.199" d="M123.034 111.963a2.358 2.358 0 0 0-3.366 0M129.79 111.963a2.358 2.358 0 0 0-3.366 0"/>
        </g>
        <g fill-rule="nonzero">
            <path fill="#000" d="M110.656 42.973H89.601L83.66 34.78l-7.098 9.8v32.772h34.094V42.973zm-2.313 31.97H78.915v-29.68l4.785-6.587 4.785 6.586h19.898v29.68h-.04z"/>
            <path fill="#0FF" d="M83.66 38.676l4.785 6.627h19.898v29.68H78.875v-29.68z"/>
            <g fill="#000" transform="translate(84.936 55.022)">
                <ellipse cx="15.153" cy="2.209" rx="1.994" ry="2.008"/>
                <ellipse cx="2.193" cy="2.209" rx="1.994" ry="2.008"/>
                <path d="M8.653 10a6.91 6.91 0 0 1-4.945-2.048c-.398-.402-.398-1.044 0-1.406.4-.401 1.037-.401 1.396 0 .957.964 2.193 1.486 3.51 1.486a4.836 4.836 0 0 0 3.508-1.486c.4-.401 1.037-.401 1.396 0 .399.402.399 1.045 0 1.406C12.282 9.277 10.528 10 8.653 10z"/>
            </g>
        </g>
        <path stroke="#767676" stroke-dasharray="1.999069585134819,1.999069585134819" stroke-linecap="round" stroke-width=".8" d="M54.43 42.96l17.746 10.857M63.204 85.998L75.027 74M115.242 53.415l21.299-6.25M101.694 80.02l9.161 16.556"/>
    </g>
</svg>
