<svg xmlns="http://www.w3.org/2000/svg" width="25" height="22" viewBox="0 0 25 22">
    <g fill="none" fill-rule="nonzero">
        <path fill="#000" d="M20.906.06v15.36l4.015 2.98-4.803 3.56h-20V.04h20.788v.02zM1.299 1.22V20.8h18.484l3.229-2.4-3.229-2.4V1.22H1.3z"/>
        <path fill="#0FF" d="M23.012 18.4l-3.248-2.38V1.22H1.299V20.8h18.465z"/>
        <g fill="#000" transform="translate(5.77 5.176)">
            <path d="M4.808 7.076c-1.629 0-2.944-1.403-2.944-3.14 0-.293.216-.524.49-.524.276 0 .491.23.491.524 0 1.151.883 2.093 1.963 2.093 1.079 0 1.962-.942 1.962-2.093 0-.293.216-.524.49-.524.275 0 .491.23.491.524 0 1.737-1.315 3.14-2.943 3.14z"/>
            <ellipse cx="1.138" cy="1.11" rx="1" ry="1.047"/>
            <ellipse cx="8.477" cy="1.11" rx="1" ry="1.047"/>
        </g>
    </g>
</svg>
